name rise37.2698peak67.6939fall79.5734.mot
datacolumns 19
datarows 26
range 16.87993900000000 16.92161300000000
endheader
time	ground_force1_vx	ground_force1_vy	ground_force1_vz	ground_force1_px	ground_force1_py	ground_force1_pz	ground_force2_vx	ground_force2_vy	ground_force2_vz	ground_force2_px	ground_force2_py	ground_force2_pz	ground_torque1_x	ground_torque1_y	ground_torque1_z	ground_torque2_x	ground_torque2_y	ground_torque2_z	
16.87993900000000	-38.44160800000000	813.20547599999998	52.95348500000000	0.13980000000000	0.00000000000000	0.09665000000000	-8.27639300000000	26.48980300000000	3.68579200000000	0.36692500000000	0.00000000000000	-0.07619000000000	0.00000000000000	21.70733500000000	0.00000000000000	0.00000000000000	1.61038300000000	0.00000000000000	
16.88160900000000	-38.90536200000000	811.20338300000003	52.68252000000000	0.13913600000000	0.00000000000000	0.09648300000000	-9.70951400000000	32.40930400000000	4.37957200000000	0.37039000000000	0.00000000000000	-0.07675100000000	0.00000000000000	21.60010200000000	0.00000000000000	0.00000000000000	1.94486500000000	0.00000000000000	
16.88327000000000	-39.38778500000000	809.08431199999995	52.38929300000000	0.13847600000000	0.00000000000000	0.09631200000000	-11.06541900000000	38.52102800000000	5.05609000000000	0.37360100000000	0.00000000000000	-0.07726900000000	0.00000000000000	21.49181700000000	0.00000000000000	0.00000000000000	2.28105100000000	0.00000000000000	
16.88493300000000	-39.88918000000000	806.84757900000000	52.07377600000000	0.13782100000000	0.00000000000000	0.09613800000000	-12.29758000000000	44.70376200000000	5.69519000000000	0.37658400000000	0.00000000000000	-0.07774900000000	0.00000000000000	21.38258200000000	0.00000000000000	0.00000000000000	2.61001200000000	0.00000000000000	
16.88660500000000	-40.40978400000000	804.49252100000001	51.73598400000000	0.13717100000000	0.00000000000000	0.09596000000000	-13.36749500000000	50.84981100000000	6.27968600000000	0.37936000000000	0.00000000000000	-0.07819800000000	0.00000000000000	21.27249700000000	0.00000000000000	0.00000000000000	2.92380400000000	0.00000000000000	
16.88827700000000	-40.94975900000000	802.01848900000005	51.37597800000000	0.13652300000000	0.00000000000000	0.09578000000000	-14.24678900000000	56.87186300000000	6.79632300000000	0.38194900000000	0.00000000000000	-0.07862100000000	0.00000000000000	21.16165500000000	0.00000000000000	0.00000000000000	3.21594200000000	0.00000000000000	
16.88994200000000	-41.50919200000000	799.42484899999999	50.99386200000000	0.13587900000000	0.00000000000000	0.09559500000000	-14.91819100000000	62.70720200000000	7.23626800000000	0.38436500000000	0.00000000000000	-0.07902100000000	0.00000000000000	21.05014300000000	0.00000000000000	0.00000000000000	3.48168900000000	0.00000000000000	
16.89160600000000	-42.08808900000000	796.71097499999996	50.58978500000000	0.13523700000000	0.00000000000000	0.09540800000000	-15.37547400000000	68.31925699999999	7.59517900000000	0.38662200000000	0.00000000000000	-0.07940100000000	0.00000000000000	20.93804100000000	0.00000000000000	0.00000000000000	3.71815700000000	0.00000000000000	
16.89328100000000	-42.68637500000000	793.87624800000003	50.16393700000000	0.13459700000000	0.00000000000000	0.09521700000000	-15.62248900000000	73.69673899999999	7.87288200000000	0.38873100000000	0.00000000000000	-0.07976400000000	0.00000000000000	20.82542500000000	0.00000000000000	0.00000000000000	3.92423500000000	0.00000000000000	
16.89493500000000	-43.30388800000000	790.92005600000005	49.71655500000000	0.13395800000000	0.00000000000000	0.09502300000000	-15.67153700000000	78.85083700000000	8.07277100000000	0.39070200000000	0.00000000000000	-0.08011300000000	0.00000000000000	20.71236100000000	0.00000000000000	0.00000000000000	4.10038700000000	0.00000000000000	
16.89661200000000	-43.94038100000000	787.84178699999995	49.24791500000000	0.13332000000000	0.00000000000000	0.09482600000000	-15.54132300000000	83.81105599999999	8.20100700000000	0.39254300000000	0.00000000000000	-0.08044800000000	0.00000000000000	20.59891000000000	0.00000000000000	0.00000000000000	4.24834500000000	0.00000000000000	
16.89828800000000	-44.59551300000000	784.64083100000005	48.75833400000000	0.13268100000000	0.00000000000000	0.09462600000000	-15.25473800000000	88.62025199999999	8.26563600000000	0.39426300000000	0.00000000000000	-0.08077300000000	0.00000000000000	20.48512400000000	0.00000000000000	0.00000000000000	4.37076200000000	0.00000000000000	
16.89994100000000	-45.26885200000000	781.31658000000004	48.24817300000000	0.13204100000000	0.00000000000000	0.09442400000000	-14.83667400000000	93.32944600000000	8.27569900000000	0.39586800000000	0.00000000000000	-0.08108800000000	0.00000000000000	20.37105000000000	0.00000000000000	0.00000000000000	4.47083100000000	0.00000000000000	
16.90161600000000	-45.95987400000000	777.86842100000001	47.71782900000000	0.13139900000000	0.00000000000000	0.09421800000000	-14.31205000000000	97.99284000000000	8.24041700000000	0.39736500000000	0.00000000000000	-0.08139400000000	0.00000000000000	20.25672300000000	0.00000000000000	0.00000000000000	4.55194400000000	0.00000000000000	
16.90328500000000	-46.66795500000000	774.29574400000001	47.16773900000000	0.13075500000000	0.00000000000000	0.09400900000000	-13.70416500000000	102.66343700000000	8.16850000000000	0.39875800000000	0.00000000000000	-0.08169200000000	0.00000000000000	20.14217200000000	0.00000000000000	0.00000000000000	4.61737800000000	0.00000000000000	
16.90494100000000	-47.39237800000000	770.59793400000001	46.59837700000000	0.13010800000000	0.00000000000000	0.09379800000000	-13.03346000000000	107.38946799999999	8.06760900000000	0.40005400000000	0.00000000000000	-0.08198400000000	0.00000000000000	20.02741900000000	0.00000000000000	0.00000000000000	4.67005000000000	0.00000000000000	
16.90659900000000	-48.13232700000000	766.77437799999996	46.01025100000000	0.12945700000000	0.00000000000000	0.09358400000000	-12.31670200000000	112.21178900000000	7.94399700000000	0.40125700000000	0.00000000000000	-0.08226900000000	0.00000000000000	19.91247600000000	0.00000000000000	0.00000000000000	4.71234600000000	0.00000000000000	
16.90828400000000	-48.88688500000000	762.82446100000004	45.40390700000000	0.12880100000000	0.00000000000000	0.09336800000000	-11.56658000000000	117.16225600000000	7.80231100000000	0.40237200000000	0.00000000000000	-0.08254900000000	0.00000000000000	19.79734500000000	0.00000000000000	0.00000000000000	4.74601200000000	0.00000000000000	
16.90993900000000	-49.65503900000000	758.74757099999999	44.77992100000000	0.12814000000000	0.00000000000000	0.09315000000000	-10.79168300000000	122.26304000000000	7.64555400000000	0.40340100000000	0.00000000000000	-0.08282500000000	0.00000000000000	19.68202300000000	0.00000000000000	0.00000000000000	4.77212400000000	0.00000000000000	
16.91160000000000	-50.43567900000000	754.54309699999999	44.13890100000000	0.12747400000000	0.00000000000000	0.09292900000000	-9.99677200000000	127.52675300000000	7.47517000000000	0.40435000000000	0.00000000000000	-0.08309500000000	0.00000000000000	19.56649400000000	0.00000000000000	0.00000000000000	4.79110600000000	0.00000000000000	
16.91327700000000	-51.22759400000000	750.21043799999995	43.48148500000000	0.12680000000000	0.00000000000000	0.09270700000000	-9.18329100000000	132.95722799999999	7.29123800000000	0.40522100000000	0.00000000000000	-0.08336100000000	0.00000000000000	19.45073700000000	0.00000000000000	0.00000000000000	4.80280000000000	0.00000000000000	
16.91494200000000	-52.02947800000000	745.74899700000003	42.80833900000000	0.12612000000000	0.00000000000000	0.09248200000000	-8.35002000000000	138.55078499999999	7.09272200000000	0.40601800000000	0.00000000000000	-0.08362400000000	0.00000000000000	19.33471900000000	0.00000000000000	0.00000000000000	4.80656900000000	0.00000000000000	
16.91661000000000	-52.83993100000000	741.15819099999999	42.12015500000000	0.12543100000000	0.00000000000000	0.09225600000000	-7.49380800000000	144.29778099999999	6.87776300000000	0.40674400000000	0.00000000000000	-0.08388200000000	0.00000000000000	19.21840000000000	0.00000000000000	0.00000000000000	4.80141500000000	0.00000000000000	
16.91828400000000	-53.65745900000000	736.43745200000001	41.41764800000000	0.12473500000000	0.00000000000000	0.09202800000000	-6.61030400000000	150.18429399999999	6.64397800000000	0.40740200000000	0.00000000000000	-0.08413700000000	0.00000000000000	19.10173100000000	0.00000000000000	0.00000000000000	4.78610400000000	0.00000000000000	
16.91993400000000	-54.48047600000000	731.58623000000000	40.70155800000000	0.12402900000000	0.00000000000000	0.09179900000000	-5.69464300000000	156.19377800000001	6.38874500000000	0.40799400000000	0.00000000000000	-0.08438900000000	0.00000000000000	18.98465200000000	0.00000000000000	0.00000000000000	4.75929300000000	0.00000000000000	
16.92161300000000	-55.30731000000000	726.60399900000004	39.97264400000000	0.12331500000000	0.00000000000000	0.09156800000000	-4.74203900000000	162.30857900000001	6.10944700000000	0.40852300000000	0.00000000000000	-0.08463700000000	0.00000000000000	18.86709700000000	0.00000000000000	0.00000000000000	4.71963400000000	0.00000000000000	
